<?xml version="1.0" standalone="no"?>
<!DOCTYPE svg PUBLIC "-//W3C//DTD SVG 20010904//EN"
 "http://www.w3.org/TR/2001/REC-SVG-20010904/DTD/svg10.dtd">
<svg version="1.0" xmlns="http://www.w3.org/2000/svg"
 width="516.000000pt" height="216.000000pt" viewBox="0 0 516.000000 216.000000"
 preserveAspectRatio="xMidYMid meet">

<g transform="translate(0.000000,216.000000) scale(0.100000,-0.100000)"
fill="#000000" stroke="none">
<path d="M2493 2128 c32 -81 62 -138 71 -138 6 0 23 34 38 75 20 59 23 75 12
75 -8 0 -14 -7 -14 -15 0 -8 -8 -34 -17 -57 l-17 -42 -17 40 c-10 21 -18 47
-18 57 -1 10 -9 17 -22 17 -13 0 -19 -5 -16 -12z"/>
<path d="M2726 2074 c-3 -31 -11 -64 -16 -74 -9 -16 -4 -19 41 -25 59 -8 78 0
24 11 -31 6 -36 10 -31 28 3 11 6 23 6 26 0 4 17 5 38 4 l37 -3 -38 11 c-31
10 -36 15 -31 32 9 28 6 27 42 17 19 -6 32 -6 32 0 0 5 -11 11 -25 14 -79 16
-72 20 -79 -41z"/>
<path d="M2288 2113 c-24 -4 -26 -7 -18 -23 5 -10 13 -43 16 -74 4 -33 12 -56
19 -56 20 0 24 10 15 41 -10 35 -7 36 34 4 18 -14 44 -25 57 -25 22 0 21 2
-14 27 -40 29 -45 38 -22 47 20 7 19 52 -1 60 -16 6 -40 6 -86 -1z m70 -35
c-3 -26 -36 -37 -49 -16 -17 25 -9 38 22 38 26 0 30 -3 27 -22z"/>
<path d="M2107 2057 c-31 -14 -45 -26 -39 -32 5 -5 18 -35 28 -65 10 -30 19
-56 20 -58 4 -8 94 34 94 44 0 9 -9 8 -32 -3 -29 -15 -32 -15 -45 2 -19 27
-17 32 17 44 39 13 39 24 -1 16 -22 -5 -34 -3 -40 6 -14 22 -11 26 21 38 17 5
30 15 30 20 0 6 -1 11 -2 10 -2 0 -25 -10 -51 -22z"/>
<path d="M2930 2071 c0 -5 16 -12 35 -15 19 -4 35 -11 35 -15 0 -5 -25 -25
-55 -45 -30 -20 -55 -40 -55 -44 0 -9 86 -42 108 -42 26 0 2 18 -33 24 -19 4
-35 10 -35 14 1 4 28 24 60 46 33 21 60 42 60 45 0 7 -96 41 -113 41 -4 0 -7
-4 -7 -9z"/>
<path d="M1928 1974 c-51 -27 -62 -74 -27 -118 14 -18 30 -26 53 -26 38 0 76
24 75 48 0 14 -3 13 -16 -5 -32 -47 -103 -16 -103 44 0 31 27 55 53 47 19 -6
20 -5 8 10 -7 9 -14 16 -15 16 0 -1 -13 -7 -28 -16z"/>
<path d="M3133 1923 c-38 -29 -58 -50 -51 -54 6 -4 18 -1 25 7 17 17 28 17 53
4 16 -8 18 -15 10 -35 -8 -20 -6 -27 9 -35 17 -9 19 -4 25 63 4 39 7 76 7 82
1 21 -19 13 -78 -32z m43 -31 c-4 -3 -12 0 -19 7 -9 9 -9 14 3 21 11 7 16 5
18 -6 2 -9 1 -18 -2 -22z"/>
<path d="M680 1894 c0 -3 9 -17 20 -31 19 -24 20 -41 20 -245 0 -173 -3 -218
-12 -212 -10 6 -10 4 -2 -7 11 -13 10 -98 -1 -127 -3 -7 0 -10 5 -7 13 8 13
-111 0 -136 -7 -11 -7 -19 -1 -19 5 0 9 -76 8 -191 -2 -170 -4 -191 -19 -200
-37 -21 -15 -29 72 -29 86 0 109 8 75 27 -13 8 -15 62 -13 418 l3 410 98 -410
c54 -226 101 -418 103 -427 4 -14 16 -18 54 -18 47 0 49 1 58 33 5 17 51 209
103 425 64 268 96 386 100 370 4 -12 7 -195 8 -405 1 -373 0 -383 -19 -393
-43 -23 -18 -30 105 -30 69 0 125 3 125 8 0 4 -9 13 -20 20 -20 12 -20 23 -20
577 0 554 0 564 20 575 42 23 18 30 -100 30 l-119 0 -9 -32 c-5 -18 -47 -187
-92 -375 -46 -189 -87 -343 -90 -343 -3 0 -23 64 -43 143 -21 78 -65 247 -99
375 l-61 232 -128 0 c-71 0 -129 -3 -129 -6z"/>
<path d="M2738 1817 c-70 -16 -88 -24 -88 -38 0 -10 9 -21 20 -24 19 -6 20
-15 20 -151 0 -79 -2 -144 -4 -144 -2 0 -21 7 -42 16 -28 12 -57 15 -100 11
-113 -9 -175 -63 -217 -189 -17 -52 -21 -89 -21 -218 -1 -134 2 -165 21 -226
12 -38 36 -88 52 -111 58 -80 172 -106 264 -60 36 19 47 21 51 10 4 -10 30
-13 101 -13 87 0 95 2 95 19 0 11 -4 23 -10 26 -6 4 -10 202 -10 561 l0 554
-22 -1 c-13 -1 -62 -10 -110 -22z m-109 -413 c13 -9 32 -35 42 -58 16 -36 19
-68 19 -264 0 -202 -2 -226 -20 -261 -26 -52 -65 -81 -106 -81 -42 0 -70 27
-81 77 -13 64 -9 462 5 512 24 81 86 113 141 75z"/>
<path d="M3653 1817 c-97 -22 -115 -38 -73 -65 20 -12 20 -23 20 -516 0 -496
0 -505 -20 -511 -11 -3 -20 -15 -20 -26 0 -18 8 -19 125 -19 116 0 125 1 125
19 0 10 -7 21 -15 25 -13 5 -15 76 -15 561 0 522 -1 555 -17 554 -10 0 -60
-11 -110 -22z"/>
<path d="M1837 1476 c-93 -35 -145 -108 -173 -246 -18 -92 -16 -250 6 -346 17
-78 67 -153 124 -189 46 -28 57 -30 140 -30 81 0 96 3 137 27 82 48 121 128
141 286 9 71 9 118 0 191 -26 222 -98 311 -261 318 -49 2 -90 -2 -114 -11z
m146 -88 c42 -39 50 -80 55 -290 4 -214 -5 -287 -40 -325 -37 -39 -120 -28
-144 19 -33 64 -40 363 -12 507 18 96 87 139 141 89z"/>
<path d="M3139 1476 c-123 -44 -179 -168 -179 -401 0 -279 79 -401 266 -413
120 -8 190 39 235 158 21 56 24 86 9 95 -15 9 -50 -4 -50 -19 0 -31 -64 -139
-94 -157 -37 -23 -103 -25 -133 -4 -35 24 -53 104 -53 227 l0 108 181 0 182 0
-6 84 c-18 224 -109 337 -271 336 -28 -1 -67 -7 -87 -14z m123 -65 c31 -25 47
-80 55 -186 l6 -85 -92 0 -91 0 0 65 c0 95 18 164 50 197 34 33 40 34 72 9z"/>
<path d="M4038 1475 c-61 -20 -129 -94 -152 -167 -23 -75 -37 -210 -30 -298
20 -250 117 -361 303 -348 71 5 132 31 167 70 55 59 97 201 93 309 -1 30 1 60
4 66 4 6 1 14 -5 16 -9 4 -9 6 -2 6 9 1 9 12 3 39 -5 20 -9 46 -9 56 0 18 1
18 20 1 11 -10 20 -24 20 -31 0 -7 4 -16 10 -19 16 -10 -1 27 -26 57 -12 15
-24 25 -27 22 -2 -3 -4 7 -4 21 0 14 -7 33 -16 43 -8 9 -18 27 -22 40 -10 35
-54 81 -99 104 -53 27 -163 34 -228 13z m152 -85 c41 -41 54 -121 54 -330 0
-215 -9 -267 -51 -299 -30 -25 -80 -27 -110 -6 -41 29 -48 75 -48 310 0 232 7
277 48 323 26 28 79 30 107 2z"/>
<path d="M410 1429 c0 -6 -6 -9 -13 -6 -7 3 -21 -1 -32 -9 -17 -12 -17 -14 -2
-14 9 0 17 5 17 12 0 7 7 5 18 -5 16 -14 17 -14 18 9 1 13 0 24 -2 24 -2 0 -4
-5 -4 -11z"/>
<path d="M4743 1417 c2 -24 3 -24 20 -10 10 10 17 12 17 5 0 -7 8 -12 17 -12
15 0 14 2 -2 14 -11 8 -24 12 -29 9 -4 -3 -12 0 -16 7 -5 8 -8 4 -7 -13z"/>
<path d="M438 1418 c5 -5 16 -8 23 -6 8 3 3 7 -10 11 -17 4 -21 3 -13 -5z"/>
<path d="M4700 1418 c-14 -6 -31 -12 -39 -14 -7 -1 -19 -8 -25 -14 -8 -8 -6
-9 9 -5 34 12 85 36 85 40 0 6 1 6 -30 -7z"/>
<path d="M485 1400 c-3 -5 -1 -10 4 -10 6 0 11 5 11 10 0 6 -2 10 -4 10 -3 0
-8 -4 -11 -10z"/>
<path d="M677 1393 c-4 -3 -7 -18 -7 -33 0 -30 -42 -93 -87 -131 -29 -24 -50
-69 -32 -69 5 0 9 6 9 13 0 8 9 22 20 32 50 45 102 125 104 160 1 19 1 35 0
35 0 0 -4 -3 -7 -7z"/>
<path d="M310 1381 c0 -5 9 -7 20 -4 11 3 20 7 20 9 0 2 -9 4 -20 4 -11 0 -20
-4 -20 -9z"/>
<path d="M486 1364 c-9 -24 -2 -26 12 -4 7 11 8 20 3 20 -5 0 -12 -7 -15 -16z"/>
<path d="M4656 1373 c6 -4 14 -15 17 -23 5 -11 6 -9 4 4 -1 11 -9 21 -17 23
-10 3 -11 2 -4 -4z"/>
<path d="M337 1350 c4 -13 -1 -26 -13 -35 -18 -15 -18 -15 1 -8 20 7 20 7 1
-22 -10 -17 -13 -24 -5 -17 16 15 33 16 23 0 -5 -7 -3 -8 6 -3 10 6 11 1 6
-21 -5 -21 -4 -25 4 -14 6 10 10 11 10 3 0 -7 10 -13 23 -12 19 0 19 1 4 7
-24 10 -47 57 -47 98 0 18 -4 35 -9 38 -5 4 -7 -3 -4 -14z"/>
<path d="M4817 1363 c-4 -3 -7 -24 -7 -45 0 -21 -4 -38 -10 -38 -5 0 -10 -9
-10 -20 0 -10 -8 -24 -17 -29 -17 -10 -17 -10 0 -11 9 0 17 6 17 13 0 8 4 7
10 -3 8 -11 9 -7 4 14 -5 22 -4 27 6 21 9 -5 11 -4 6 3 -10 16 7 15 23 0 8 -7
5 0 -5 17 -19 29 -19 29 1 22 19 -7 19 -7 1 8 -12 9 -17 22 -13 35 5 21 4 24
-6 13z"/>
<path d="M297 1336 c-9 -13 -13 -26 -10 -30 3 -3 12 6 20 21 17 34 10 41 -10
9z"/>
<path d="M515 1350 c-3 -5 -1 -10 4 -10 6 0 11 5 11 10 0 6 -2 10 -4 10 -3 0
-8 -4 -11 -10z"/>
<path d="M4630 1350 c0 -5 5 -10 11 -10 5 0 7 5 4 10 -3 6 -8 10 -11 10 -2 0
-4 -4 -4 -10z"/>
<path d="M4841 1355 c0 -13 28 -50 33 -44 3 2 -4 15 -14 29 -11 14 -20 21 -19
15z"/>
<path d="M4428 1345 c-4 -4 -4 -13 0 -19 4 -6 7 -15 7 -21 0 -5 36 -34 80 -64
44 -29 81 -59 83 -67 6 -25 19 -15 14 11 -2 14 -10 25 -16 25 -6 0 -39 16 -73
36 -45 27 -65 46 -75 71 -7 19 -16 32 -20 28z"/>
<path d="M445 1329 c-11 -16 -1 -19 13 -3 7 8 8 14 3 14 -5 0 -13 -5 -16 -11z"/>
<path d="M4702 1326 c7 -8 15 -12 17 -11 5 6 -10 25 -20 25 -5 0 -4 -6 3 -14z"/>
<path d="M4760 1325 c-11 -13 -10 -14 4 -9 9 3 16 10 16 15 0 13 -6 11 -20 -6z"/>
<path d="M380 1326 c0 -2 7 -7 16 -10 8 -3 12 -2 9 4 -6 10 -25 14 -25 6z"/>
<path d="M4618 1298 c-3 -17 0 -29 8 -32 15 -6 17 8 5 39 -7 18 -8 17 -13 -7z"/>
<path d="M487 1283 c-4 -3 -7 -17 -7 -30 0 -12 -4 -23 -8 -23 -4 0 -8 -9 -8
-20 0 -31 14 -10 24 38 10 43 10 47 -1 35z"/>
<path d="M520 1275 c0 -9 6 -12 15 -9 8 4 12 10 9 15 -8 14 -24 10 -24 -6z"/>
<path d="M4672 1247 c10 -47 24 -68 24 -37 0 11 -4 20 -8 20 -4 0 -8 11 -8 24
0 14 -4 27 -9 30 -5 3 -5 -13 1 -37z"/>
<path d="M108 1269 c-12 -6 -18 -22 -18 -43 0 -20 7 -39 18 -47 14 -11 15 -11
5 1 -15 16 -18 70 -4 70 5 0 11 7 15 15 6 17 6 17 -16 4z"/>
<path d="M275 1270 c-3 -5 -2 -10 4 -10 5 0 13 5 16 10 3 6 2 10 -4 10 -5 0
-13 -4 -16 -10z"/>
<path d="M405 1270 c3 -5 15 -10 25 -10 10 0 22 5 25 10 4 6 -7 10 -25 10 -18
0 -29 -4 -25 -10z"/>
<path d="M4710 1265 c6 -8 9 -19 5 -25 -3 -5 1 -10 10 -10 9 0 13 5 10 11 -4
6 1 17 11 24 18 13 16 14 -15 15 -28 0 -32 -2 -21 -15z"/>
<path d="M4865 1270 c3 -5 11 -10 16 -10 6 0 7 5 4 10 -3 6 -11 10 -16 10 -6
0 -7 -4 -4 -10z"/>
<path d="M5036 1265 c4 -8 10 -15 15 -15 14 0 11 -54 -3 -70 -11 -12 -10 -12
5 -1 24 19 23 77 -3 91 -16 9 -18 8 -14 -5z"/>
<path d="M281 1234 c0 -11 3 -14 6 -6 3 7 2 16 -1 19 -3 4 -6 -2 -5 -13z"/>
<path d="M425 1240 c-3 -5 1 -10 10 -10 9 0 13 5 10 10 -3 6 -8 10 -10 10 -2
0 -7 -4 -10 -10z"/>
<path d="M66 1154 c8 -60 17 -72 72 -95 30 -13 47 -28 57 -51 8 -18 14 -28 15
-21 1 33 -26 63 -73 82 -27 12 -47 24 -44 28 4 3 2 12 -5 20 -9 11 -7 12 8 7
18 -5 18 -5 2 6 -20 12 -25 35 -5 24 6 -4 3 3 -8 17 -11 13 -21 26 -22 28 -2
3 0 -18 3 -45z"/>
<path d="M265 1189 c-3 -3 4 -9 15 -12 12 -3 20 0 20 7 0 13 -28 18 -35 5z"/>
<path d="M395 1191 c16 -15 48 -17 51 -3 1 7 0 8 -2 3 -4 -7 -15 -6 -32 0 -17
6 -23 7 -17 0z"/>
<path d="M4641 1193 c0 -4 4 -17 9 -28 8 -19 9 -19 9 2 1 12 -3 25 -9 28 -5 3
-10 3 -9 -2z"/>
<path d="M4714 1188 c3 -14 35 -12 51 3 6 7 0 6 -17 0 -17 -6 -28 -7 -32 0 -2
5 -3 4 -2 -3z"/>
<path d="M4860 1185 c0 -8 7 -11 20 -8 22 6 19 15 -5 19 -8 1 -15 -4 -15 -11z"/>
<path d="M5085 1184 c-4 -10 -8 -35 -9 -54 -1 -32 -5 -37 -53 -59 -47 -22 -74
-53 -73 -84 1 -7 7 3 15 21 10 23 27 38 57 51 55 23 71 43 66 81 -2 16 0 31 5
33 6 2 8 9 5 17 -3 10 -7 9 -13 -6z"/>
<path d="M503 1175 c-3 -9 -3 -18 -1 -21 3 -3 8 4 11 16 6 23 -1 27 -10 5z"/>
<path d="M276 1144 c-8 -22 -8 -24 8 -24 11 0 15 -13 14 -51 0 -28 3 -53 6
-56 3 -4 6 6 6 20 0 15 5 27 10 27 6 0 10 5 10 11 0 5 -4 7 -10 4 -6 -4 -10 6
-10 22 0 15 -7 36 -14 46 -12 16 -14 16 -20 1z"/>
<path d="M459 1158 c-6 -12 -4 -48 2 -48 5 0 9 11 9 25 0 21 -6 33 -11 23z"/>
<path d="M4690 1136 c0 -14 5 -26 10 -26 6 0 10 9 10 19 0 11 -4 23 -10 26 -6
4 -10 -5 -10 -19z"/>
<path d="M4757 1146 c-4 -10 -1 -13 8 -9 8 3 12 9 9 14 -7 12 -11 11 -17 -5z"/>
<path d="M4862 1135 c-7 -14 -12 -35 -12 -46 0 -11 -4 -17 -10 -14 -5 3 -10 1
-10 -4 0 -6 5 -11 10 -11 6 0 10 -12 10 -27 0 -14 3 -24 6 -20 3 3 6 28 6 56
-1 38 3 51 14 51 16 0 18 9 6 28 -6 9 -12 5 -20 -13z"/>
<path d="M340 1139 c0 -5 4 -8 9 -4 5 3 12 -3 14 -12 4 -16 5 -16 6 1 1 13 6
17 21 13 11 -3 18 -1 14 4 -7 13 -64 11 -64 -2z"/>
<path d="M4584 1128 c-4 -13 -12 -26 -18 -30 -7 -5 -5 -8 6 -8 9 0 18 -6 21
-12 2 -7 8 -10 12 -6 4 4 2 14 -4 22 -7 8 -10 24 -6 36 3 11 4 20 1 20 -2 0
-8 -10 -12 -22z"/>
<path d="M4791 1128 c1 -18 2 -19 6 -5 2 9 9 15 14 12 5 -4 9 -1 9 4 0 6 -7
11 -15 11 -9 0 -15 -9 -14 -22z"/>
<path d="M531 1124 c0 -11 3 -14 6 -6 3 7 2 16 -1 19 -3 4 -6 -2 -5 -13z"/>
<path d="M4535 1130 c-13 -6 -15 -9 -5 -9 8 0 22 4 30 9 18 12 2 12 -25 0z"/>
<path d="M4621 1124 c0 -11 3 -14 6 -6 3 7 2 16 -1 19 -3 4 -6 -2 -5 -13z"/>
<path d="M563 1103 c-7 -15 -11 -28 -9 -31 6 -6 28 38 24 48 -2 5 -9 -3 -15
-17z"/>
<path d="M4652 1110 c0 -14 2 -19 5 -12 2 6 2 18 0 25 -3 6 -5 1 -5 -13z"/>
<path d="M4831 1114 c0 -11 3 -14 6 -6 3 7 2 16 -1 19 -3 4 -6 -2 -5 -13z"/>
<path d="M501 1104 c0 -11 3 -14 6 -6 3 7 2 16 -1 19 -3 4 -6 -2 -5 -13z"/>
<path d="M599 1091 c11 -7 10 -11 -5 -20 -16 -9 -16 -10 -3 -11 9 0 19 6 22
14 6 16 -1 26 -17 26 -6 0 -5 -4 3 -9z"/>
<path d="M4731 998 c-1 -27 -21 -41 -21 -15 -1 7 -7 4 -15 -7 -8 -10 -21 -16
-29 -13 -21 8 -39 -18 -31 -45 12 -38 45 -66 97 -84 27 -9 45 -20 42 -26 -4
-6 1 -8 15 -3 31 10 25 0 -14 -24 -20 -12 -35 -28 -34 -38 0 -11 3 -13 6 -5 6
15 84 54 92 46 3 -2 0 -14 -7 -24 -7 -11 -12 -32 -12 -47 l1 -28 14 25 c8 14
14 40 15 58 0 24 4 31 13 26 8 -5 8 -2 -2 9 -7 9 -43 26 -79 37 -73 23 -112
52 -112 84 0 20 1 20 23 -4 12 -14 19 -21 15 -16 -21 27 15 74 52 67 12 -2 12
0 -1 11 -9 7 -19 20 -22 28 -3 8 -6 3 -6 -12z"/>
<path d="M407 987 c-11 -11 -13 -17 -5 -15 35 7 71 -41 51 -68 -5 -5 1 1 12
13 40 45 49 21 10 -25 -18 -21 -46 -36 -94 -51 -37 -11 -75 -28 -82 -38 -9
-11 -10 -14 -1 -9 8 5 12 0 12 -17 0 -14 7 -40 15 -58 l14 -34 -3 30 c-1 17
-6 38 -11 48 -4 10 -5 20 -3 22 9 10 87 -35 91 -52 4 -14 5 -12 6 5 1 16 -9
29 -34 44 -44 25 -39 35 7 13 l33 -16 -24 19 -24 19 50 17 c53 18 86 46 98 84
8 27 -10 53 -31 45 -8 -3 -21 3 -29 13 -8 11 -14 14 -15 7 0 -20 -18 -15 -22
5 -3 17 -4 17 -21 -1z"/>
<path d="M312 970 c0 -19 2 -27 5 -17 2 9 2 25 0 35 -3 9 -5 1 -5 -18z"/>
<path d="M4460 996 c0 -2 7 -9 15 -16 9 -7 15 -8 15 -2 0 5 -7 12 -15 16 -8 3
-15 4 -15 2z"/>
<path d="M4842 965 c0 -16 2 -22 5 -12 2 9 2 23 0 30 -3 6 -5 -1 -5 -18z"/>
<path d="M540 965 c0 -8 4 -15 10 -15 5 0 7 7 4 15 -4 8 -8 15 -10 15 -2 0 -4
-7 -4 -15z"/>
<path d="M4606 965 c-3 -8 -1 -15 4 -15 6 0 10 7 10 15 0 8 -2 15 -4 15 -2 0
-6 -7 -10 -15z"/>
<path d="M186 953 c-6 -14 -5 -15 5 -6 7 7 10 15 7 18 -3 3 -9 -2 -12 -12z"/>
<path d="M90 921 c0 -6 4 -13 10 -16 6 -3 7 1 4 9 -7 18 -14 21 -14 7z"/>
<path d="M126 913 c-6 -14 -5 -15 5 -6 7 7 10 15 7 18 -3 3 -9 -2 -12 -12z"/>
<path d="M290 915 c-7 -9 -8 -15 -2 -15 5 0 12 7 16 15 3 8 4 15 2 15 -2 0 -9
-7 -16 -15z"/>
<path d="M5020 921 c0 -6 4 -13 10 -16 6 -3 7 1 4 9 -7 18 -14 21 -14 7z"/>
<path d="M62 862 l-23 -37 26 28 c14 15 25 32 25 38 0 14 -3 11 -28 -29z"/>
<path d="M5070 891 c0 -6 4 -13 10 -16 6 -3 7 1 4 9 -7 18 -14 21 -14 7z"/>
<path d="M244 868 l-19 -23 23 19 c12 11 22 21 22 23 0 8 -8 2 -26 -19z"/>
<path d="M497 829 c7 -7 15 -10 18 -7 3 3 -2 9 -12 12 -14 6 -15 5 -6 -5z"/>
<path d="M4650 830 c-9 -6 -10 -10 -3 -10 6 0 15 5 18 10 8 12 4 12 -15 0z"/>
<path d="M187 812 c-12 -13 -15 -31 -11 -74 3 -47 1 -59 -13 -67 -10 -6 -13
-11 -6 -11 28 0 45 33 40 79 -3 25 -1 55 4 68 10 28 7 29 -14 5z"/>
<path d="M4958 809 c6 -14 8 -45 5 -70 -5 -46 12 -79 40 -79 6 0 3 6 -7 13
-12 9 -16 24 -14 57 2 25 6 48 11 51 4 3 -4 16 -19 30 l-25 24 9 -26z"/>
<path d="M213 775 c0 -22 2 -30 4 -17 2 12 2 30 0 40 -3 9 -5 -1 -4 -23z"/>
<path d="M4943 775 c0 -22 2 -30 4 -17 2 12 2 30 0 40 -3 9 -5 -1 -4 -23z"/>
<path d="M21 784 c0 -12 7 -28 17 -35 15 -12 16 -12 6 1 -7 8 -14 24 -17 35
-4 19 -5 19 -6 -1z"/>
<path d="M5131 785 c0 -12 -5 -26 -11 -33 -5 -7 -3 -6 6 2 9 7 14 22 11 32 -4
17 -5 17 -6 -1z"/>
<path d="M500 778 c0 -2 9 -11 20 -21 11 -9 20 -13 20 -7 0 5 -9 14 -20 20
-11 6 -20 9 -20 8z"/>
<path d="M4630 765 c-19 -23 -8 -25 14 -4 11 11 15 19 9 19 -6 0 -16 -7 -23
-15z"/>
<path d="M15 730 c3 -5 8 -10 11 -10 2 0 4 5 4 10 0 6 -5 10 -11 10 -5 0 -7
-4 -4 -10z"/>
<path d="M5130 729 c0 -5 5 -7 10 -4 6 3 10 8 10 11 0 2 -4 4 -10 4 -5 0 -10
-5 -10 -11z"/>
<path d="M222 710 c0 -14 2 -19 5 -12 2 6 2 18 0 25 -3 6 -5 1 -5 -13z"/>
<path d="M4932 710 c0 -14 2 -19 5 -12 2 6 2 18 0 25 -3 6 -5 1 -5 -13z"/>
<path d="M48 713 c6 -2 18 -2 25 0 6 3 1 5 -13 5 -14 0 -19 -2 -12 -5z"/>
<path d="M5088 713 c6 -2 18 -2 25 0 6 3 1 5 -13 5 -14 0 -19 -2 -12 -5z"/>
<path d="M71 656 c0 -11 -17 -48 -37 -83 -39 -70 -38 -95 3 -115 48 -23 66
-124 38 -203 -8 -22 -15 -41 -15 -42 0 -2 12 -2 28 -2 18 1 21 3 9 6 -14 4
-17 10 -12 26 20 65 17 135 -9 198 -6 14 0 16 36 14 24 -1 46 3 50 9 9 14 418
18 436 4 8 -7 12 -7 12 1 0 16 195 14 365 -4 191 -20 367 -54 358 -69 -3 -6
-26 -39 -50 -72 -24 -34 -43 -71 -43 -83 0 -25 46 -51 92 -51 56 0 110 -19
106 -38 -2 -9 -14 -19 -28 -24 l-25 -7 24 2 c13 1 29 11 35 22 6 11 18 31 28
45 l16 26 164 -33 c89 -18 174 -32 188 -32 14 0 -51 15 -145 34 -144 27 -403
90 -413 100 -6 6 151 227 165 232 8 3 81 -13 161 -35 335 -95 606 -126 1022
-119 249 4 321 9 465 31 168 25 349 66 475 105 104 33 99 36 189 -98 l79 -118
-181 -46 c-100 -25 -175 -46 -167 -46 8 0 41 5 72 13 64 15 70 12 102 -51 11
-23 23 -33 39 -32 l22 0 -22 9 c-23 10 -31 34 -14 45 6 3 42 9 81 14 68 9 110
30 110 54 0 6 -23 43 -50 83 -28 40 -50 75 -50 77 0 19 353 66 568 76 158 7
189 6 199 -6 6 -8 14 -10 17 -5 8 13 412 8 429 -5 6 -5 22 -8 33 -7 20 1 21
-1 9 -30 -14 -35 -28 -106 -21 -106 2 0 9 24 16 52 6 29 20 63 32 75 12 13 16
24 10 24 -7 1 -15 2 -19 3 -5 2 -85 6 -180 10 l-172 9 31 61 c16 33 40 72 52
85 l21 24 -23 -12 c-12 -6 -35 -38 -51 -69 -16 -32 -35 -63 -43 -69 -7 -6
-101 -13 -222 -17 -277 -9 -465 -29 -671 -71 -28 -6 -34 -2 -71 47 -26 35 -48
54 -64 56 -14 2 -81 -13 -150 -33 -148 -43 -316 -77 -500 -102 -189 -25 -716
-25 -904 0 -183 25 -369 63 -508 103 -67 19 -132 34 -147 32 -18 -2 -36 -18
-61 -56 -32 -47 -38 -52 -65 -48 -16 3 -82 14 -145 25 -151 26 -295 39 -515
47 -101 4 -186 11 -193 17 -8 6 -27 37 -43 69 -16 31 -39 63 -51 69 l-23 12
21 -24 c22 -24 74 -121 74 -137 0 -5 -73 -12 -162 -15 -90 -4 -184 -10 -209
-13 -64 -9 -70 11 -29 92 19 37 30 71 27 85 -3 18 -5 19 -6 5z"/>
<path d="M5081 647 c-1 -15 13 -52 30 -83 27 -47 30 -59 21 -80 -8 -15 -8 -24
-2 -24 6 0 15 11 21 24 10 21 7 33 -21 81 -17 31 -36 68 -40 83 l-8 27 -1 -28z"/>
<path d="M306 649 c6 -8 13 -21 16 -28 4 -13 5 -13 10 0 4 9 -2 21 -15 29 -19
11 -20 11 -11 -1z"/>
<path d="M4838 646 c-11 -8 -14 -17 -7 -27 7 -12 9 -11 9 3 0 9 6 18 13 21 6
2 10 7 7 10 -3 3 -13 0 -22 -7z"/>
<path d="M260 590 c0 -5 5 -10 11 -10 5 0 7 5 4 10 -3 6 -8 10 -11 10 -2 0 -4
-4 -4 -10z"/>
<path d="M4885 590 c-3 -5 -1 -10 4 -10 6 0 11 5 11 10 0 6 -2 10 -4 10 -3 0
-8 -4 -11 -10z"/>
<path d="M1585 389 c4 -7 14 -21 22 -30 12 -14 10 -17 -19 -25 l-33 -8 39 -4
c37 -3 61 11 50 30 -9 14 -67 52 -59 37z"/>
<path d="M3503 380 c-20 -12 -33 -28 -33 -40 0 -17 6 -20 48 -19 l47 1 -40 13
c-22 8 -35 14 -29 14 10 1 51 51 42 51 -2 0 -18 -9 -35 -20z"/>
<path d="M1519 370 c21 -18 71 -28 71 -14 0 7 -66 34 -82 34 -7 -1 -2 -10 11
-20z"/>
<path d="M3573 383 c-12 -2 -27 -11 -33 -19 -17 -20 11 -19 50 1 45 23 39 29
-17 18z"/>
<path d="M1661 361 c8 -13 25 -28 38 -33 34 -12 22 9 -19 35 l-35 22 16 -24z"/>
<path d="M3433 360 c-18 -11 -33 -24 -33 -30 0 -15 44 8 58 31 15 24 14 23
-25 -1z"/>
<path d="M1726 345 c7 -16 35 -35 54 -35 18 0 2 19 -30 35 -26 14 -29 14 -24
0z"/>
<path d="M3350 338 c-29 -18 -32 -23 -16 -26 11 -2 29 7 45 22 31 32 18 34
-29 4z"/>
<path d="M1813 315 c25 -22 57 -33 57 -20 0 8 -63 45 -75 45 -5 -1 3 -12 18
-25z"/>
<path d="M3295 330 c-26 -10 -52 -40 -36 -40 20 0 48 18 55 35 3 8 4 15 3 14
-1 0 -11 -4 -22 -9z"/>
<path d="M1653 313 c-7 -2 -13 -9 -13 -14 0 -11 40 -12 58 0 22 14 -17 26 -45
14z"/>
<path d="M1885 300 c10 -11 28 -20 39 -20 20 0 20 1 -4 20 -34 27 -59 27 -35
0z"/>
<path d="M3199 300 c-14 -11 -18 -19 -11 -20 19 0 52 19 52 30 0 16 -16 12
-41 -10z"/>
<path d="M3412 311 c-11 -7 -10 -10 3 -15 24 -9 65 -7 65 3 0 5 -10 11 -22 15
-29 7 -30 7 -46 -3z"/>
<path d="M1954 291 c11 -11 28 -21 40 -21 18 0 18 2 6 14 -8 8 -26 17 -40 21
-25 8 -25 8 -6 -14z"/>
<path d="M2343 298 c-12 -17 -11 -140 2 -145 6 -2 11 29 13 77 4 81 2 90 -15
68z"/>
<path d="M2743 303 c-31 -4 -33 -7 -33 -42 0 -36 1 -37 33 -33 21 2 38 -2 46
-11 19 -23 -21 -61 -56 -52 -16 4 -22 2 -18 -5 9 -15 57 -12 83 6 42 29 17 84
-39 84 -24 0 -30 4 -27 18 2 12 13 17 36 17 19 0 32 5 32 12 0 7 -6 12 -12 11
-7 0 -28 -3 -45 -5z"/>
<path d="M3128 294 c-16 -8 -28 -19 -28 -24 0 -14 58 9 64 26 7 18 -2 17 -36
-2z"/>
<path d="M5021 293 c-1 -12 3 -33 8 -46 l10 -25 -87 5 c-48 3 -85 3 -82 1 3
-3 47 -8 98 -12 l93 -6 -12 23 c-7 12 -16 36 -20 52 -5 23 -7 25 -8 8z"/>
<path d="M1720 290 c-23 -15 -4 -23 36 -15 28 5 34 9 23 16 -18 11 -40 11 -59
-1z"/>
<path d="M2024 281 c11 -11 31 -21 45 -21 24 0 25 1 6 14 -11 7 -31 17 -45 21
-25 8 -25 8 -6 -14z"/>
<path d="M2423 288 c-31 -40 -12 -88 35 -88 l27 1 -28 15 c-32 17 -34 50 -5
68 14 8 22 6 40 -11 18 -19 20 -27 12 -50 -5 -15 -24 -38 -43 -50 -38 -26 -25
-31 19 -8 75 39 63 135 -17 135 -17 0 -35 -6 -40 -12z"/>
<path d="M2567 287 c-4 -10 3 -12 23 -9 41 6 45 -14 13 -61 -15 -23 -32 -47
-36 -54 -6 -10 5 -13 48 -13 30 0 55 4 55 9 0 6 -16 7 -35 4 -19 -3 -35 -3
-35 0 0 3 14 28 31 56 26 42 30 53 19 66 -15 18 -76 20 -83 2z"/>
<path d="M3055 283 c-25 -14 -27 -18 -11 -21 10 -2 28 5 39 17 25 25 13 27
-28 4z"/>
<path d="M3336 291 c-6 -9 27 -21 59 -21 20 1 20 1 1 15 -22 17 -52 20 -60 6z"/>
<path d="M2104 271 c11 -11 28 -21 40 -21 18 0 18 2 6 14 -8 8 -26 17 -40 21
-25 8 -25 8 -6 -14z"/>
<path d="M2983 275 c-18 -8 -33 -17 -33 -20 0 -13 40 -3 61 15 28 23 17 25
-28 5z"/>
<path d="M1790 270 c-11 -7 -6 -10 22 -10 20 0 40 5 43 10 8 13 -45 13 -65 0z"/>
<path d="M2180 261 c30 -25 74 -30 50 -7 -8 8 -28 18 -45 21 l-30 7 25 -21z"/>
<path d="M2903 268 c-13 -6 -23 -15 -23 -20 0 -14 27 -9 51 12 27 22 10 26
-28 8z"/>
<path d="M3255 270 c3 -5 23 -10 43 -10 28 0 33 3 22 10 -20 13 -73 13 -65 0z"/>
<path d="M1870 255 l-25 -14 27 -1 c34 0 59 10 52 21 -7 13 -25 11 -54 -6z"/>
<path d="M3192 261 c-18 -11 7 -21 51 -21 l32 1 -25 14 c-29 17 -40 18 -58 6z"/>
<path d="M1940 240 c-12 -7 -8 -10 15 -10 17 0 37 5 45 10 12 7 8 10 -15 10
-16 0 -37 -5 -45 -10z"/>
<path d="M3110 240 c20 -13 73 -13 65 0 -3 6 -23 10 -43 10 -28 0 -33 -3 -22
-10z"/>
<path d="M347 233 c51 -2 135 -2 185 0 51 1 10 3 -92 3 -102 0 -143 -2 -93 -3z"/>
<path d="M2020 230 c-12 -7 -8 -10 15 -10 17 0 37 5 45 10 12 7 8 10 -15 10
-16 0 -37 -5 -45 -10z"/>
<path d="M2105 225 l-30 -13 30 -1 c17 0 36 3 43 8 25 15 -11 20 -43 6z"/>
<path d="M2967 234 c-13 -13 5 -24 36 -24 l32 1 -25 14 c-29 16 -34 17 -43 9z"/>
<path d="M3040 230 c20 -13 63 -13 55 0 -3 6 -21 10 -38 10 -24 0 -28 -3 -17
-10z"/>
<path d="M4578 233 c50 -2 134 -2 185 0 50 1 9 3 -93 3 -102 0 -143 -2 -92 -3z"/>
<path d="M148 223 c17 -2 47 -2 65 0 17 2 3 4 -33 4 -36 0 -50 -2 -32 -4z"/>
<path d="M657 223 c18 -2 50 -2 70 0 21 2 7 4 -32 4 -38 0 -55 -2 -38 -4z"/>
<path d="M2174 215 c-18 -14 -18 -14 7 -15 14 0 34 7 45 15 18 14 18 14 -7 15
-14 0 -34 -7 -45 -15z"/>
<path d="M2894 215 c11 -8 31 -15 45 -15 24 0 24 1 5 15 -10 8 -30 14 -44 14
-24 0 -24 0 -6 -14z"/>
<path d="M4285 219 c-160 -20 -107 -20 120 1 l80 7 -65 0 c-36 0 -96 -3 -135
-8z"/>
<path d="M788 213 c12 -2 32 -2 45 0 12 2 2 4 -23 4 -25 0 -35 -2 -22 -4z"/>
<path d="M900 199 c60 -10 108 -9 55 2 -22 4 -53 8 -70 7 -22 0 -19 -3 15 -9z"/>
<path d="M4015 174 c-60 -14 -141 -31 -180 -39 -38 -7 -58 -14 -43 -14 15 -1
87 12 160 29 73 16 156 33 183 38 33 7 40 10 20 10 -16 0 -79 -11 -140 -24z"/>
<path d="M1145 155 c83 -19 164 -34 180 -33 l30 1 -30 4 c-16 3 -90 18 -162
34 -73 16 -141 29 -150 28 -10 0 50 -16 132 -34z"/>
<path d="M3305 164 c-66 -13 -95 -21 -65 -18 66 6 245 42 210 41 -14 0 -79
-10 -145 -23z"/>
<path d="M3542 145 c0 -16 2 -22 5 -12 2 9 2 23 0 30 -3 6 -5 -1 -5 -18z"/>
<path d="M3570 146 c0 -31 6 -34 13 -6 3 11 1 23 -4 26 -5 3 -9 -6 -9 -20z"/>
<path d="M3607 157 c-3 -8 -1 -20 4 -28 6 -10 9 -7 9 14 0 29 -5 35 -13 14z"/>
<path d="M1910 139 c83 -17 395 -49 455 -48 44 1 30 4 -50 10 -60 5 -181 18
-268 29 -165 21 -214 24 -137 9z"/>
<path d="M3133 133 c9 -2 25 -2 35 0 9 3 1 5 -18 5 -19 0 -27 -2 -17 -5z"/>
<path d="M3058 123 c12 -2 30 -2 40 0 9 3 -1 5 -23 4 -22 0 -30 -2 -17 -4z"/>
<path d="M2930 113 c-14 -2 -74 -8 -135 -13 l-110 -9 125 6 c130 5 267 20 185
20 -22 0 -51 -2 -65 -4z"/>
<path d="M2498 83 c34 -2 88 -2 120 0 31 2 3 3 -63 3 -66 0 -92 -1 -57 -3z"/>
</g>
</svg>
